<svg width="196" height="196" viewBox="0 0 196 196" fill="none" xmlns="http://www.w3.org/2000/svg">
<g clip-path="url(#clip0_35_70)">
<path fill-rule="evenodd" clip-rule="evenodd" d="M119.337 37.6777C123.751 42.0917 123.738 49.2607 119.309 53.6899L111.144 61.8556L95.1587 45.8708L103.324 37.7051C107.754 33.2759 114.923 33.2636 119.337 37.6777ZM116.694 51.0742C119.673 48.0946 119.681 43.2718 116.712 40.3023C113.743 37.3329 108.92 37.3412 105.94 40.3208L100.399 45.8618L111.153 56.6152L116.694 51.0742Z" fill="black"/>
<path fill-rule="evenodd" clip-rule="evenodd" d="M89.5905 67.4238C94.0046 71.8379 101.174 71.8256 105.603 67.3963L113.768 59.2306L97.7837 43.2458L89.618 51.4115C85.1888 55.8408 85.1765 63.0097 89.5905 67.4238ZM102.987 64.7806C100.007 67.7603 95.1847 67.7686 92.2152 64.7991C89.2458 61.8296 89.254 57.0069 92.2337 54.0272L97.7747 48.4862L108.528 59.2396L102.987 64.7806Z" fill="black"/>
<path fill-rule="evenodd" clip-rule="evenodd" d="M102.959 80.7927C107.374 85.2068 114.542 85.1945 118.972 80.7652L127.137 72.5995L111.153 56.6147L102.987 64.7806C98.5579 69.2099 98.5454 76.3786 102.959 80.7927ZM116.356 78.1495C113.376 81.1292 108.554 81.1375 105.584 78.168C102.615 75.1985 102.623 70.376 105.603 67.3963L111.144 61.8551L121.897 72.6085L116.356 78.1495Z" fill="black"/>
<path fill-rule="evenodd" clip-rule="evenodd" d="M116.328 94.1617C120.752 98.5849 127.957 98.518 132.377 94.098C136.837 89.6377 136.905 82.3668 132.441 77.9035L124.522 69.9837L116.356 78.1495C111.927 82.5788 111.914 89.7476 116.328 94.1617ZM129.761 91.4823C126.772 94.4712 121.913 94.4973 118.953 91.537C115.984 88.5675 115.992 83.7449 118.972 80.7652L124.513 75.2241L129.817 80.5282C132.817 83.5286 132.79 88.4531 129.761 91.4823Z" fill="black"/>
<path fill-rule="evenodd" clip-rule="evenodd" d="M116.519 67.2333C120.933 71.6474 128.102 71.6351 132.531 67.2059L132.677 67.0601C137.106 62.6308 137.118 55.4619 132.704 51.0478C128.29 46.6337 121.121 46.646 116.692 51.0753L116.546 51.2211C112.117 55.6503 112.105 62.8193 116.519 67.2333ZM129.915 64.5902C126.936 67.5699 122.113 67.5781 119.143 64.6087C116.174 61.6392 116.182 56.8165 119.162 53.8368L119.308 53.691C122.287 50.7113 127.11 50.703 130.08 53.6725C133.049 56.6419 133.041 61.4647 130.061 64.4444L129.915 64.5902Z" fill="black"/>
<path d="M62.2508 93.4691C63.4175 92.3024 63.418 90.4112 62.2518 89.245C61.0856 88.0788 59.1944 88.0793 58.0277 89.246C56.861 90.4127 56.8606 92.3039 58.0267 93.4701C59.1929 94.6362 61.0841 94.6358 62.2508 93.4691Z" fill="white"/>
<path d="M47.94 124.461C49.1067 123.295 49.1071 121.403 47.941 120.237C46.7748 119.071 44.8836 119.071 43.7169 120.238C42.5501 121.405 42.5497 123.296 43.7159 124.462C44.8821 125.628 46.7733 125.628 47.94 124.461Z" fill="white"/>
<path d="M93.1965 74.9816C94.3627 76.1478 94.3623 78.039 93.1956 79.2057C92.0288 80.3724 90.1377 80.3728 88.9715 79.2067C87.8053 78.0405 87.8057 76.1493 88.9724 74.9826C90.1392 73.8159 92.0303 73.8154 93.1965 74.9816Z" fill="white"/>
<path d="M98.5112 129.846C99.6779 128.68 99.6783 126.789 98.5122 125.622C97.346 124.456 95.4548 124.457 94.2881 125.623C93.1214 126.79 93.1209 128.681 94.2871 129.847C95.4533 131.014 97.3445 131.013 98.5112 129.846Z" fill="white"/>
<path fill-rule="evenodd" clip-rule="evenodd" d="M89.0448 129.903L91.8158 129.751C92.0508 130.24 92.3711 130.698 92.7766 131.104C94.7067 133.034 97.8367 133.033 99.7677 131.102C101.699 129.171 101.699 126.041 99.7693 124.111C99.3967 123.738 98.9794 123.438 98.5346 123.209L98.6977 120.243L98.7057 120.103C99.2873 109.887 99.7928 101.008 99.1166 93.6967C98.6345 88.4845 97.5306 83.7679 95.2384 79.7503C96.3937 77.848 96.1499 75.3352 94.5068 73.692C92.9854 72.1706 90.7184 71.8489 88.8808 72.7267C81.0008 67.2421 70.2934 68.1717 63.2127 75.2524C60.6971 77.768 59.3547 81.0298 58.6652 84.1289C58.4742 84.9876 58.3287 85.8537 58.2221 86.7152C57.5948 86.9561 57.0067 87.3295 56.5009 87.8353C56.027 88.3091 55.6694 88.8552 55.4281 89.438C54.5934 89.5436 53.7549 89.6858 52.9232 89.8709C49.8241 90.5603 46.5623 91.9028 44.0468 94.4183C36.982 101.483 36.0407 112.158 41.484 120.033C40.4944 121.901 40.7855 124.269 42.3576 125.841C44.0495 127.533 46.6636 127.741 48.5836 126.466C52.5927 128.743 57.2957 129.842 62.4911 130.322C69.8019 130.998 78.6813 130.493 88.8976 129.911L89.0448 129.903ZM50.6816 123.409C58.9067 127.911 71.3827 127.212 88.8367 126.218L91.5751 126.067C91.809 125.353 92.21 124.681 92.7782 124.113C93.3791 123.512 94.0961 123.098 94.8569 122.871L95.0124 120.042C96.0025 102.65 96.7005 90.2 92.2503 81.974C90.6112 82.3977 88.7974 81.968 87.5141 80.6847C86.1089 79.2795 85.7272 77.2383 86.3686 75.4868C79.9996 71.3345 71.5304 72.1531 65.8219 77.8616C63.5478 80.1357 62.4026 83.4263 61.9357 86.7809C62.5011 87.0216 63.0308 87.3726 63.4919 87.8337C65.422 89.7638 65.4213 92.8938 63.4903 94.8247C61.5593 96.7557 58.4293 96.7564 56.4992 94.8264C56.0099 94.337 55.6446 93.7704 55.4035 93.1659C52.1086 93.6477 48.8912 94.7923 46.656 97.0276C40.9269 102.757 40.123 111.266 44.3263 117.643C46.0376 117.088 47.9913 117.49 49.3502 118.849C50.5878 120.086 51.0315 121.817 50.6816 123.409ZM43.5233 122.533C43.5233 122.533 43.5233 122.533 43.5233 122.533C43.4707 121.874 43.6966 121.196 44.2011 120.692C44.758 120.135 45.5258 119.918 46.2472 120.04C46.2471 120.04 46.2472 120.04 46.2472 120.04C46.7088 120.118 47.1514 120.335 47.5076 120.691C48.4205 121.604 48.4202 123.085 47.5069 123.998C46.5935 124.911 45.1131 124.912 44.2002 123.999C43.7915 123.59 43.5659 123.067 43.5233 122.533ZM97.9266 125.954C97.8638 125.891 97.7982 125.832 97.7304 125.778C97.4381 125.545 97.1027 125.392 96.754 125.319C96.0376 125.169 95.2645 125.358 94.6911 125.886L94.6796 125.897C94.6595 125.916 94.6397 125.935 94.6201 125.954C93.7068 126.868 93.7064 128.348 94.6193 129.261C94.6947 129.336 94.7739 129.406 94.8564 129.469C94.9058 129.506 94.9565 129.542 95.0081 129.575C95.9134 130.158 97.1332 130.053 97.9259 129.26C98.8392 128.347 98.8395 126.867 97.9266 125.954ZM92.6634 78.8413C92.1848 79.3199 91.5504 79.5479 90.9236 79.525C90.834 79.5217 90.7446 79.5133 90.6559 79.4998C90.1803 79.4275 89.7229 79.2082 89.3567 78.8421C88.9289 78.4142 88.7016 77.8617 88.6749 77.3014C88.6447 76.6661 88.8723 76.0207 89.3576 75.5354C89.8684 75.0247 90.5565 74.7994 91.2236 74.8598C91.3189 74.8684 91.4137 74.8829 91.5076 74.9031C91.9315 74.9948 92.3348 75.2052 92.6642 75.5346C93.5771 76.4475 93.5767 77.928 92.6634 78.8413ZM58.3427 89.6771C58.9135 89.1063 59.7059 88.8921 60.4428 89.0346C60.8065 89.1049 61.1566 89.2622 61.46 89.5063C61.5254 89.5589 61.5886 89.6156 61.6493 89.6763C62.5622 90.5892 62.5618 92.0697 61.6485 92.983C60.7352 93.8963 59.2548 93.8966 58.3419 92.9837C58.3156 92.9575 58.2901 92.9308 58.2654 92.9036C57.4298 91.9862 57.4557 90.5642 58.3427 89.6771Z" fill="black"/>
<mask id="mask0_35_70" style="mask-type:alpha" maskUnits="userSpaceOnUse" x="41" y="72" width="55" height="55">
<path d="M91.5748 126.067L88.8364 126.218C71.3825 127.211 58.9064 127.911 50.6814 123.408C51.0312 121.817 50.5875 120.086 49.35 118.848C47.991 117.489 46.0373 117.087 44.326 117.643C40.1228 111.266 40.9266 102.756 46.6557 97.0272C48.8909 94.7919 52.1083 93.6473 55.4032 93.1655C55.6443 93.7701 56.0096 94.3366 56.499 94.826C58.4291 96.7561 61.5591 96.7553 63.49 94.8244C65.421 92.8934 65.4217 89.7634 63.4916 87.8333C63.0305 87.3722 62.5008 87.0213 61.9354 86.7805C62.4023 83.4259 63.5475 80.1353 65.8216 77.8612C71.5301 72.1527 79.9993 71.3341 86.3683 75.4865C85.7269 77.2379 86.1087 79.2791 87.5139 80.6843C88.7971 81.9676 90.6109 82.3973 92.25 81.9736C96.7002 90.1996 96.0022 102.649 95.0121 120.042L94.8566 122.87C94.0958 123.097 93.3788 123.511 92.7779 124.112C92.2098 124.68 91.8087 125.352 91.5748 126.067Z" fill="#236DF6"/>
</mask>
<g mask="url(#mask0_35_70)">
<rect x="32.2988" y="109.54" width="65.0547" height="58.761" transform="rotate(-45 32.2988 109.54)" fill="#80C9F0"/>
<rect x="24.6982" y="118.341" width="83.1306" height="62.1053" transform="rotate(-45 24.6982 118.341)" fill="white"/>
<g clip-path="url(#clip1_35_70)">
<path d="M81.3408 158.868L140.647 99.5611L81.3408 40.2544L22.0342 99.5611L81.3408 158.868Z" fill="#8296FF"/>
<path d="M103.519 101.256C104.063 100.551 104.654 99.7645 105.261 98.9346L103.88 97.5538L96.4605 104.973C94.5419 107.306 93.1729 108.935 93.4101 109.188C93.8384 109.643 98.9885 105.072 99.2814 105.416C99.768 105.987 86.0451 119.194 86.8159 120.196C87.115 120.584 89.3675 118.839 89.6808 119.258C90.2981 120.082 82.3542 127.916 80.6648 130.439L81.1738 130.948C82.0213 130.494 83.2462 129.646 83.4546 129.903C83.6191 130.106 83.0003 130.811 82.0564 131.831L82.9023 132.677L84.3751 131.204C84.1238 130.179 94.399 120.261 93.7002 119.328C93.3869 118.91 91.1345 120.654 90.8354 120.266C90.0644 119.264 103.787 106.058 103.301 105.486C103.008 105.143 97.8578 109.714 97.4295 109.258C97.078 108.884 100.253 105.487 103.519 101.256Z" fill="#5E77FF"/>
<path d="M89.4974 124.09C89.4974 124.09 90.5072 123.158 89.9346 123.935C89.362 124.711 88.3715 125.892 88.3715 125.892C88.3715 125.892 90.0842 124.716 89.6753 125.278C89.2665 125.839 87.07 127.822 87.07 127.822C87.07 127.822 87.9111 127.339 87.742 127.591C87.5728 127.843 86.4343 128.786 86.4343 128.786C86.4343 128.786 88.1215 127.284 86.7703 127.959C86.7703 127.959 89.5527 125.499 88.9797 125.675C88.4065 125.85 87.7894 126.27 87.7894 126.27C87.7894 126.27 90.8523 122.956 89.4974 124.09Z" fill="#8296FF"/>
<path d="M100.186 99.7981C101.263 98.5567 102.439 97.1781 103.659 95.7306L102.243 94.3145L88.4753 108.082C84.7435 112.238 82.095 115.154 82.3321 115.419C82.7599 115.898 92.0758 107.175 92.3551 107.549C92.819 108.17 67.5697 132.89 68.2646 134.013C68.5341 134.448 72.503 131 72.7807 131.472C73.3278 132.403 58.6331 146.986 55.1522 151.322L55.6742 151.844C57.0838 150.837 59.2001 149.107 59.3937 149.391C59.5463 149.616 58.3622 150.888 56.5792 152.749L57.4468 153.617L60.1794 150.884C60.2428 149.512 79.161 130.959 78.5416 129.905C78.2638 129.433 74.2951 132.881 74.0255 132.446C73.3307 131.323 98.5799 106.603 98.116 105.982C97.8368 105.608 88.5208 114.331 88.093 113.852C87.7417 113.459 93.7244 107.249 100.186 99.7981Z" fill="#5E77FF"/>
<path d="M83.4613 42.4949L24.1683 101.788L50.3496 127.969L109.643 68.6762L83.4613 42.4949Z" fill="#BEC9FF"/>
<path d="M29.677 107.334L80.2711 56.7394C81.2667 62.0828 79.2397 70.4255 74.9458 78.6907C70.8938 86.4898 65.9241 89.8138 68.1356 82.3984C67.2946 84.5496 64.465 93.6209 63.3275 95.8102C58.76 104.602 47.9352 116.727 42.4972 120.154L29.677 107.334Z" fill="#99A9FF"/>
<path d="M87.6533 49.357C84.8001 67.087 79.6603 81.0217 72.0114 93.9813C69.8746 97.6018 67.6631 101.208 64.83 104.346C63.8244 105.46 61.5107 108.249 59.6385 107.446C58.2206 106.838 58.8863 104.327 59.7672 99.9101C59.8781 100.382 60.1113 100.704 60.5097 100.875C62.3818 101.678 64.6957 98.8885 65.7012 97.7745C68.5344 94.6362 70.7457 91.03 72.8826 87.4096C80.4372 74.6098 83.8481 63.8465 86.095 50.8882L87.6533 49.357Z" fill="#99A9FF"/>
<path d="M73.6294 102.978C70.192 102.653 71.6631 105.296 71.6631 105.296C68.1167 103.376 65.9043 108.837 65.9043 108.837C60.0164 107.812 57.3915 115.259 57.3915 115.259C55.592 112.549 53.2698 115.544 53.2698 115.544C50.6254 113.437 48.5125 117.348 48.5125 117.348C44.2528 115.891 41.7448 116.63 40.2839 117.811L50.7148 128.241L79.0633 99.893C75.384 99.1505 73.6294 102.978 73.6294 102.978Z" fill="#FFFCFA"/>
<path d="M85.0646 92.2574C85.3117 89.3925 87.3287 90.2377 87.3287 90.2377C86.241 87.523 91.2075 84.8162 91.2075 84.8162C91.2346 79.9802 97.9476 76.6216 97.9476 76.6216C95.9241 75.5083 98.8165 73.0837 98.8165 73.0837C97.433 71.1622 101.07 68.7758 101.07 68.7758C100.483 65.3862 101.491 63.1475 102.714 61.7291L109.97 68.9853L81.6221 97.3337C81.5525 94.3274 85.0646 92.2574 85.0646 92.2574Z" fill="#FFFCFA"/>
<path d="M51.3697 103.649L45.2451 109.773C45.2451 109.773 44.611 108.772 45.1079 108.47C45.6047 108.167 46.1553 108.372 46.4795 107.81C46.8037 107.249 46.1664 106.309 46.9981 106.039C47.8299 105.769 48.2649 106.442 48.7333 105.614C49.2017 104.786 49.3637 104.257 50.2818 103.879C51.2 103.501 51.3697 103.649 51.3697 103.649Z" fill="#FFFCFA"/>
<path d="M82.0187 72.9091L75.894 79.0337C75.894 79.0337 75.2599 78.0323 75.7569 77.7297C76.2537 77.4273 76.8043 77.6322 77.1284 77.0707C77.4526 76.5091 76.8154 75.5694 77.6471 75.2994C78.4788 75.0294 78.9139 75.702 79.3823 74.8742C79.8507 74.0463 80.0126 73.5171 80.9308 73.1391C81.849 72.761 82.0187 72.9091 82.0187 72.9091Z" fill="#FFFCFA"/>
<path d="M92.255 112.809C92.255 112.809 93.7246 111.453 92.8911 112.583C92.0577 113.714 90.6158 115.432 90.6158 115.432C90.6158 115.432 93.109 113.721 92.5137 114.538C91.9186 115.356 88.7214 118.242 88.7214 118.242C88.7214 118.242 89.9457 117.538 89.6995 117.905C89.4533 118.272 87.796 119.645 87.796 119.645C87.796 119.645 90.2519 117.458 88.2852 118.44C88.2852 118.44 92.3354 114.86 91.5011 115.116C90.6668 115.372 89.7686 115.982 89.7686 115.982C89.7686 115.982 94.227 111.158 92.255 112.809Z" fill="#FFFCFA"/>
<path d="M76.7071 119.85C76.7071 119.85 75.351 121.32 76.4814 120.486C77.6116 119.653 79.3304 118.211 79.3304 118.211C79.3304 118.211 77.619 120.704 78.4364 120.109C79.2537 119.514 82.14 116.317 82.14 116.317C82.14 116.317 81.4362 117.541 81.8033 117.295C82.1704 117.049 83.5426 115.391 83.5426 115.391C83.5426 115.391 81.356 117.847 82.3384 115.88C82.3384 115.88 78.7581 119.931 79.0137 119.096C79.2695 118.262 79.8799 117.364 79.8799 117.364C79.8799 117.364 75.0564 121.822 76.7071 119.85Z" fill="#FFFCFA"/>
<path d="M86.7252 99.1185L86.0922 99.7514L84.1905 97.8497L95.4141 86.6262L97.5561 88.7682L87.2857 99.0385C87.153 98.9058 86.9024 98.9413 86.7252 99.1185Z" fill="#5E77FF"/>
<path d="M82.9148 102.929L80.4658 100.48L69.0354 111.91L71.4844 114.359L72.1175 113.726L82.2818 103.562L82.9148 102.929Z" fill="#001CB5"/>
<path d="M64.8021 114.595L54.0917 125.306L54.6924 125.906L65.6404 114.958L64.8021 114.595Z" fill="#BEC9FF"/>
<path d="M64.2849 114.632L53.7309 125.186L53.9712 125.426L64.7953 114.602C64.646 114.751 64.4175 114.765 64.2849 114.632Z" fill="white"/>
<path d="M65.7947 115.025L65.6405 114.958L54.0917 126.507L55.1816 126.859L66.4051 115.635L65.7947 115.025Z" fill="#001CB5"/>
<path d="M67.6741 118.17L68.307 117.537L66.4052 115.635L55.1817 126.859L57.3237 129.001L67.5943 118.73C67.4616 118.598 67.497 118.347 67.6741 118.17Z" fill="#5E77FF"/>
<path d="M68.3498 118.456L68.1547 118.651C67.9776 118.828 67.7271 118.863 67.5944 118.73L57.104 129.221C56.9801 129.345 56.9779 129.543 57.0995 129.665C57.2211 129.787 57.4197 129.784 57.5437 129.66L68.5976 118.606L68.3498 118.456Z" fill="#BEC9FF"/>
<path d="M68.5973 118.606L57.539 129.665L57.7266 129.852L68.8304 118.748L68.5973 118.606Z" fill="#0029FF"/>
<path d="M70.5463 119.941L70.4349 120.052C70.2233 119.841 69.7238 119.401 69.4685 119.178L57.3146 131.332C57.3146 131.332 57.6209 131.704 58.1138 131.408C58.1138 131.408 58.3236 131.946 58.8265 131.661C58.8265 131.661 59.3297 132.295 59.7568 131.868C60.1838 131.441 71.1151 120.51 71.1151 120.51L70.5463 119.941Z" fill="#0029FF"/>
<path d="M88.4967 101.991L88.6078 101.879C88.3963 101.668 87.9562 101.168 87.7332 100.913L99.887 88.7591C99.887 88.7591 100.259 89.0654 99.9637 89.5581C99.9637 89.5581 100.502 89.7679 100.216 90.2711C100.216 90.2711 100.851 90.7742 100.423 91.2013C99.9967 91.628 89.0654 102.559 89.0654 102.559L88.4967 101.991Z" fill="#0029FF"/>
<path d="M62.9211 106.473L60.4015 103.953L57.9008 106.454L60.4204 108.974L62.9211 106.473Z" fill="#5E77FF"/>
<path d="M75.0283 94.3655L72.5087 91.8459L75.0093 89.3452L77.5289 91.8649L75.0283 94.3655Z" fill="#5E77FF"/>
<path d="M64.3318 114.126L64.7416 113.716L64.364 113.339L52.9675 124.735L53.5835 125.351L64.2882 114.647C64.1565 114.515 64.1759 114.282 64.3318 114.126Z" fill="#0029FF"/>
<path d="M82.7197 95.7382L82.2987 96.1593L81.9211 95.7817L93.6257 84.0771L94.2417 84.6931L83.2477 95.6871C83.116 95.5555 82.8797 95.5783 82.7197 95.7382Z" fill="#0029FF"/>
<path d="M81.2412 132.453L80.9615 132.173L81.1429 131.991L80.8632 131.712L80.9979 131.577L80.2827 130.415L80.1366 130.534L79.8568 130.254L80.037 130.074L79.7573 129.794L79.8974 129.654L79.6177 129.375L79.7986 129.194L71.1148 120.51L59.7565 131.868L71.0708 143.182L81.2876 132.966L81.0079 132.686L81.2412 132.453Z" fill="#0029FF"/>
<path d="M101.008 112.686L100.728 112.406L100.547 112.588L100.267 112.308L100.132 112.443L98.9709 111.727L99.0896 111.581L98.8099 111.302L98.6298 111.482L98.3501 111.202L98.2099 111.342L97.9302 111.062L97.7494 111.243L89.0656 102.559L100.424 91.2012L111.738 102.516L101.521 112.732L101.242 112.452L101.008 112.686Z" fill="#0029FF"/>
<path d="M69.5863 119.06L57.3144 131.332L56.3536 131.225L69.0527 118.526L69.5863 119.06Z" fill="#2245FF"/>
<path d="M63.73 127.895L63.3423 128.283L61.853 126.793L62.2407 126.406L63.73 127.895Z" fill="#3D5CFF"/>
<path d="M64.8155 126.809L64.4277 127.197L62.9384 125.708L63.3261 125.32L64.8155 126.809Z" fill="#3D5CFF"/>
<path d="M65.9019 125.723L65.5142 126.111L64.0248 124.622L64.4125 124.234L65.9019 125.723Z" fill="#3D5CFF"/>
<path d="M66.9873 124.638L66.5996 125.025L65.1103 123.536L65.498 123.148L66.9873 124.638Z" fill="#3D5CFF"/>
<path d="M68.0728 123.552L67.6851 123.94L66.1957 122.451L66.5835 122.063L68.0728 123.552Z" fill="#3D5CFF"/>
<path d="M69.1587 122.466L68.771 122.854L67.2817 121.365L67.6694 120.977L69.1587 122.466Z" fill="#3D5CFF"/>
<path d="M70.2444 121.381L69.8564 121.769L68.3671 120.279L68.755 119.891L70.2444 121.381Z" fill="#3D5CFF"/>
<path d="M70.6752 121.86L63.9673 128.568L63.5122 128.113L70.2201 121.405L70.6752 121.86Z" fill="#3D5CFF"/>
<path d="M70.4808 122.054L64.1606 128.374L64.5103 128.724L70.8304 122.404L70.4808 122.054Z" fill="#001CB5"/>
<path d="M70.5798 122.654L64.7615 128.473L75.271 138.982L81.0894 133.164L70.5798 122.654Z" fill="#5E77FF"/>
<path d="M68.4543 126.347C68.4373 126.362 66.1752 128.944 69.3809 132.15L74.2569 127.274C71.0513 124.068 68.4686 126.33 68.4543 126.347Z" fill="#001CB5"/>
<path d="M68.4543 126.347C68.4373 126.362 66.1752 128.944 69.3809 132.15L74.2569 127.274C71.0513 124.068 68.4686 126.33 68.4543 126.347Z" stroke="#8296FF" stroke-width="0.113267" stroke-miterlimit="10" stroke-linecap="round" stroke-linejoin="round"/>
<path d="M70.6444 125.558L73.3086 128.222" stroke="#8296FF" stroke-width="0.113267" stroke-miterlimit="10" stroke-linecap="round" stroke-linejoin="round"/>
<path d="M69.5798 125.743L72.6836 128.847" stroke="#8296FF" stroke-width="0.113267" stroke-miterlimit="10" stroke-linecap="round" stroke-linejoin="round"/>
<path d="M68.7314 126.145L72.0586 129.472" stroke="#8296FF" stroke-width="0.113267" stroke-miterlimit="10" stroke-linecap="round" stroke-linejoin="round"/>
<path d="M68.143 126.806L71.4336 130.097" stroke="#8296FF" stroke-width="0.113267" stroke-miterlimit="10" stroke-linecap="round" stroke-linejoin="round"/>
<path d="M73.5044 126.608L68.7158 131.397" stroke="#8296FF" stroke-width="0.113267" stroke-miterlimit="10" stroke-linecap="round" stroke-linejoin="round"/>
<path d="M72.751 126.112L68.2183 130.644" stroke="#8296FF" stroke-width="0.113267" stroke-miterlimit="10" stroke-linecap="round" stroke-linejoin="round"/>
<path d="M71.8777 125.734L67.8413 129.771" stroke="#8296FF" stroke-width="0.113267" stroke-miterlimit="10" stroke-linecap="round" stroke-linejoin="round"/>
<path d="M70.8049 125.557L67.6646 128.698" stroke="#8296FF" stroke-width="0.113267" stroke-miterlimit="10" stroke-linecap="round" stroke-linejoin="round"/>
<path d="M66.8703 118.443L60.5742 124.739L59.3323 123.497L65.6284 117.201L66.8703 118.443Z" fill="white"/>
<path d="M83.6016 125.95L79.8975 129.655L79.6177 129.375L83.3219 125.671L83.6016 125.95Z" fill="#2245FF"/>
<path d="M84.0219 126.09L80.0376 130.074L79.7579 129.794L83.7422 125.81L84.0219 126.09Z" fill="#001CB5"/>
<path d="M72.8186 115.535L72.2149 114.59L71.9812 114.824L72.6063 115.747L72.4356 115.918L71.7929 115.012L71.5589 115.246L72.2233 116.13L72.0526 116.301L71.3708 115.435L70.8927 115.913L71.6191 116.735L71.4481 116.906L70.7045 116.101L70.4706 116.335L71.2361 117.118L71.0651 117.289L70.2823 116.523L70.0486 116.757L70.8532 117.501L70.6823 117.671L69.8602 116.945L69.3821 117.423L70.2486 118.105L70.078 118.276L69.1942 117.611L68.96 117.845L69.8658 118.488L69.695 118.659L68.7717 118.034L68.538 118.267L69.4829 118.871L69.312 119.042C69.312 119.042 70.1444 119.762 70.4349 120.053L74.0002 116.487C73.6125 116.1 73.2636 115.704 72.9845 115.369L72.8186 115.535Z" fill="#2245FF"/>
<path d="M60.4012 103.346C60.5687 103.514 60.5688 103.786 60.4012 103.953L57.9004 106.454C57.733 106.622 57.4613 106.621 57.2938 106.454C57.1263 106.286 57.1258 106.014 57.2933 105.847L59.794 103.346C59.9617 103.179 60.2338 103.179 60.4012 103.346Z" fill="#001CB5"/>
<path d="M56.1719 102.225C56.1719 102.225 56.4457 104.999 57.0908 105.644L57.2935 105.847L59.7942 103.346L59.5916 103.143C58.9464 102.498 56.1719 102.225 56.1719 102.225Z" fill="#3D5CFF"/>
<path d="M61.0359 106.557L59.9285 105.45C59.7818 105.303 59.5438 105.303 59.3972 105.45C59.2506 105.596 59.2508 105.834 59.3975 105.981L60.5049 107.088L61.0359 106.557Z" fill="white"/>
<path d="M60.0839 107.509L58.9765 106.402C58.8298 106.255 58.6353 106.212 58.5425 106.305C58.4494 106.398 58.493 106.592 58.6397 106.739L59.7471 107.846L60.0839 107.509Z" fill="white"/>
<path d="M61.7938 105.8L60.6864 104.692C60.5397 104.546 60.3452 104.502 60.2524 104.595C60.1594 104.688 60.203 104.882 60.3496 105.029L61.457 106.136L61.7938 105.8Z" fill="white"/>
<path d="M67.6764 110.76L64.708 113.729L63.7068 112.727L66.6751 109.759L67.6764 110.76Z" fill="#3D5CFF"/>
<path d="M68.5792 110.338C68.7119 110.47 68.6984 110.699 68.5491 110.848L64.7955 114.602C64.6463 114.751 64.4178 114.764 64.2851 114.632C64.1524 114.499 64.1657 114.271 64.315 114.121L68.0686 110.368C68.2179 110.218 68.4465 110.205 68.5792 110.338Z" fill="#0029FF"/>
<path d="M72.6781 113.647C72.8107 113.779 72.7748 114.03 72.5983 114.207L68.1545 118.651C67.9774 118.828 67.7269 118.863 67.5942 118.73C67.4615 118.598 67.4969 118.347 67.674 118.17L72.1178 113.726C72.2942 113.55 72.5454 113.514 72.6781 113.647Z" fill="#0029FF"/>
<path d="M66.1392 114.807L65.883 115.063L64.8024 114.595L65.1087 114.289L66.1392 114.807Z" fill="white"/>
<path d="M66.7132 114.233L66.457 114.489L65.4889 113.908L65.7953 113.602L66.7132 114.233Z" fill="white"/>
<path d="M67.2876 113.659L67.0316 113.915L66.1759 113.222L66.4821 112.916L67.2876 113.659Z" fill="white"/>
<path d="M67.862 113.084L67.606 113.34L66.863 112.535L67.1693 112.228L67.862 113.084Z" fill="white"/>
<path d="M68.4362 112.51L68.1802 112.766L67.5497 111.848L67.856 111.542L68.4362 112.51Z" fill="white"/>
<path d="M69.0104 111.936L68.7544 112.192L68.2362 111.161L68.5429 110.855L69.0104 111.936Z" fill="white"/>
<path d="M69.4824 118.871L69.3117 119.042L68.3493 118.455L68.5376 118.267L69.4824 118.871Z" fill="white"/>
<path d="M69.8657 118.488L69.695 118.659L68.7717 118.034L68.96 117.845L69.8657 118.488Z" fill="white"/>
<path d="M70.2486 118.105L70.0781 118.276L69.194 117.611L69.3821 117.423L70.2486 118.105Z" fill="white"/>
<path d="M70.8531 117.5L70.6821 117.671L69.86 116.945L70.0482 116.757L70.8531 117.5Z" fill="white"/>
<path d="M71.2362 117.118L71.0652 117.289L70.2824 116.523L70.4707 116.335L71.2362 117.118Z" fill="white"/>
<path d="M71.6187 116.735L71.4478 116.906L70.7042 116.101L70.8923 115.912L71.6187 116.735Z" fill="white"/>
<path d="M72.223 116.131L72.0522 116.301L71.3705 115.435L71.5585 115.246L72.223 116.131Z" fill="white"/>
<path d="M72.6063 115.747L72.4355 115.918L71.7928 115.012L71.9811 114.824L72.6063 115.747Z" fill="white"/>
<path d="M72.9889 115.364L72.8184 115.535L72.2146 114.59L72.4028 114.402L72.9889 115.364Z" fill="white"/>
<path d="M69.0103 111.936L68.7543 112.192L68.236 111.162L67.8559 111.542L68.4361 112.51L68.1801 112.766L67.5496 111.848L67.169 112.229L67.8617 113.084L67.6059 113.34L66.8627 112.535L66.4819 112.916L67.2875 113.659L67.0314 113.915L66.1758 113.222L65.7953 113.602L66.7132 114.233L66.457 114.489L65.4889 113.909L65.1083 114.289L66.139 114.807L65.8826 115.063L65.7942 115.025L68.3066 117.537L71.4844 114.36L68.9719 111.847L69.0103 111.936Z" fill="#2245FF"/>
<path d="M63.3139 106.398C63.4014 106.485 63.4016 106.628 63.3137 106.716L60.6635 109.366C60.5758 109.454 60.433 109.454 60.3455 109.366C60.2577 109.278 60.2581 109.136 60.3457 109.048L62.996 106.398C63.0839 106.31 63.2261 106.31 63.3139 106.398Z" fill="#2245FF"/>
<path d="M64.3343 107.886L61.8336 110.387L60.7133 110.187L64.1342 106.766L64.3343 107.886Z" fill="#0029FF"/>
<path d="M80.4663 128.526L79.7988 129.194L70.5459 119.941L71.2133 119.273L80.4663 128.526Z" fill="#8296FF"/>
<path d="M81.8037 127.189L81.1362 127.856L71.8833 118.603L72.5507 117.936L81.8037 127.189Z" fill="#D47C28"/>
<path d="M82.4724 126.52L81.8047 127.188L72.5517 117.935L73.2194 117.267L82.4724 126.52Z" fill="#CB7026"/>
<path d="M83.1413 125.851L82.4736 126.519L73.2207 117.266L73.8883 116.598L83.1413 125.851Z" fill="#BA5E23"/>
<path d="M84.495 126.203L80.1504 130.548L79.857 130.254L84.2017 125.91L84.495 126.203Z" fill="#8296FF"/>
<path d="M85.5243 127.051L80.998 131.577L80.2829 130.415L84.3627 126.335L85.5243 127.051Z" fill="#2245FF"/>
<path d="M85.939 127.195L81.1431 131.991L80.8633 131.711L85.6592 126.916L85.939 127.195Z" fill="#E1882A"/>
<path d="M63.2388 106.791L60.7381 109.291L61.1738 109.727L63.6746 107.226L63.2388 106.791Z" fill="#5E77FF"/>
<path d="M63.9404 112.494L66.4412 109.993L64.3347 107.886L61.8339 110.387L63.9404 112.494Z" fill="#2245FF"/>
<path d="M87.6152 101.031L99.887 88.7592L99.7809 87.7981L87.0816 100.497L87.6152 101.031Z" fill="#2245FF"/>
<path d="M96.4507 95.1743L96.8383 94.7867L95.349 93.2973L94.9614 93.685L96.4507 95.1743Z" fill="#3D5CFF"/>
<path d="M95.3643 96.2603L95.7523 95.8722L94.263 94.3829L93.8749 94.7709L95.3643 96.2603Z" fill="#3D5CFF"/>
<path d="M94.2788 97.3459L94.6665 96.9583L93.1771 95.469L92.7895 95.8566L94.2788 97.3459Z" fill="#3D5CFF"/>
<path d="M93.1934 98.4316L93.581 98.044L92.0917 96.5547L91.704 96.9423L93.1934 98.4316Z" fill="#3D5CFF"/>
<path d="M92.1079 99.5171L92.4956 99.1294L91.0062 97.6401L90.6186 98.0278L92.1079 99.5171Z" fill="#3D5CFF"/>
<path d="M91.0215 100.603L91.4091 100.216L89.9198 98.7263L89.5322 99.1139L91.0215 100.603Z" fill="#3D5CFF"/>
<path d="M89.9365 101.688L90.3242 101.301L88.8349 99.8115L88.4472 100.199L89.9365 101.688Z" fill="#3D5CFF"/>
<path d="M90.4155 102.12L97.1238 95.4114L96.6687 94.9563L89.9604 101.665L90.4155 102.12Z" fill="#3D5CFF"/>
<path d="M90.6093 101.926L96.9296 95.6055L97.2792 95.9552L90.959 102.275L90.6093 101.926Z" fill="#001CB5"/>
<path d="M91.2102 102.024L97.0283 96.206L107.538 106.716L101.72 112.534L91.2102 102.024Z" fill="#5E77FF"/>
<path d="M94.9029 99.8986C94.9173 99.8813 97.5 97.6192 100.706 100.825L95.8296 105.701C92.6239 102.495 94.8857 99.9129 94.9029 99.8986Z" fill="#001CB5"/>
<path d="M94.9029 99.8986C94.9173 99.8813 97.5 97.6192 100.706 100.825L95.8296 105.701C92.6239 102.495 94.8857 99.9129 94.9029 99.8986Z" stroke="#8296FF" stroke-width="0.113267" stroke-miterlimit="10" stroke-linecap="round" stroke-linejoin="round"/>
<path d="M94.1132 102.089L96.7773 104.753" stroke="#8296FF" stroke-width="0.113267" stroke-miterlimit="10" stroke-linecap="round" stroke-linejoin="round"/>
<path d="M94.2985 101.024L97.4023 104.128" stroke="#8296FF" stroke-width="0.113267" stroke-miterlimit="10" stroke-linecap="round" stroke-linejoin="round"/>
<path d="M94.7001 100.176L98.0273 103.503" stroke="#8296FF" stroke-width="0.113267" stroke-miterlimit="10" stroke-linecap="round" stroke-linejoin="round"/>
<path d="M95.3617 99.5873L98.6523 102.878" stroke="#8296FF" stroke-width="0.113267" stroke-miterlimit="10" stroke-linecap="round" stroke-linejoin="round"/>
<path d="M95.1641 104.948L99.9526 100.16" stroke="#8296FF" stroke-width="0.113267" stroke-miterlimit="10" stroke-linecap="round" stroke-linejoin="round"/>
<path d="M94.667 104.195L99.1999 99.6624" stroke="#8296FF" stroke-width="0.113267" stroke-miterlimit="10" stroke-linecap="round" stroke-linejoin="round"/>
<path d="M94.2896 103.323L98.3261 99.286" stroke="#8296FF" stroke-width="0.113267" stroke-miterlimit="10" stroke-linecap="round" stroke-linejoin="round"/>
<path d="M94.1133 102.249L97.2537 99.1086" stroke="#8296FF" stroke-width="0.113267" stroke-miterlimit="10" stroke-linecap="round" stroke-linejoin="round"/>
<path d="M83.1508 96.2468L93.8611 85.5364L94.4618 86.1371L83.5137 97.0852L83.1508 96.2468Z" fill="#BEC9FF"/>
<path d="M86.998 98.3149L93.2942 92.0188L92.0524 90.7769L85.7562 97.0731L86.998 98.3149Z" fill="white"/>
<path d="M94.5054 115.046L98.2095 111.342L97.9298 111.063L94.2257 114.767L94.5054 115.046Z" fill="#2245FF"/>
<path d="M94.6455 115.466L98.6297 111.482L98.35 111.202L94.3658 115.186L94.6455 115.466Z" fill="#001CB5"/>
<path d="M84.0903 104.263L83.1457 103.659L83.3795 103.426L84.3026 104.051L84.4733 103.88L83.5678 103.237L83.8016 103.003L84.6856 103.668L84.8563 103.497L83.9899 102.815L84.4679 102.337L85.2898 103.064L85.4605 102.893L84.6562 102.149L84.89 101.915L85.6728 102.681L85.8439 102.51L85.0783 101.727L85.3121 101.493L86.0558 102.298L86.2269 102.127L85.5004 101.305L85.9784 100.827L86.6605 101.693L86.8312 101.522L86.1663 100.639L86.4001 100.405L87.0431 101.31L87.2142 101.139L86.5887 100.216L86.8226 99.9825L87.4261 100.927L87.5972 100.756C87.5972 100.756 88.3173 101.589 88.6077 101.88L85.0424 105.445C84.6547 105.057 84.2592 104.708 83.9246 104.429L84.0903 104.263Z" fill="#2245FF"/>
<path d="M71.9022 91.8455C72.0697 92.013 72.3415 92.013 72.509 91.8455L75.0099 89.3446C75.1774 89.1771 75.177 88.9056 75.0096 88.7381C74.8421 88.5707 74.5703 88.57 74.4028 88.7374L71.9018 91.2384C71.7343 91.4059 71.7347 91.6781 71.9022 91.8455Z" fill="#001CB5"/>
<path d="M70.78 87.6164C70.78 87.6164 73.5542 87.8904 74.1994 88.5355L74.402 88.7382L71.9014 91.2388L71.6988 91.0362C71.0536 90.391 70.78 87.6164 70.78 87.6164Z" fill="#3D5CFF"/>
<path d="M75.1128 92.4805L74.0054 91.3731C73.8587 91.2264 73.8587 90.9883 74.0054 90.8416C74.1521 90.6949 74.3898 90.6953 74.5365 90.842L75.6439 91.9494L75.1128 92.4805Z" fill="white"/>
<path d="M76.0654 91.5281L74.958 90.4207C74.8114 90.274 74.7676 90.0796 74.8605 89.9868C74.9537 89.8935 75.1481 89.9373 75.2948 90.0839L76.4022 91.1913L76.0654 91.5281Z" fill="white"/>
<path d="M74.355 93.2383L73.2476 92.1309C73.1009 91.9842 73.0572 91.7898 73.1504 91.6966C73.2433 91.6037 73.4376 91.6475 73.5843 91.7941L74.6917 92.9015L74.355 93.2383Z" fill="white"/>
<path d="M79.3159 99.1206L82.2842 96.1524L81.2829 95.1511L78.3147 98.1194L79.3159 99.1206Z" fill="#3D5CFF"/>
<path d="M78.893 100.024C79.0257 100.157 79.2545 100.143 79.4037 99.9938L83.1573 96.2402C83.3065 96.091 83.3198 95.8625 83.1871 95.7298C83.0544 95.5972 82.8259 95.6104 82.6768 95.7596L78.9232 99.5132C78.774 99.6624 78.7603 99.8912 78.893 100.024Z" fill="#0029FF"/>
<path d="M82.2021 104.123C82.3348 104.255 82.5858 104.219 82.7626 104.043L87.2062 99.599C87.3834 99.4218 87.4189 99.1711 87.2862 99.0384C87.1535 98.9058 86.9028 98.9413 86.7257 99.1184L82.2821 103.562C82.1053 103.739 82.0694 103.99 82.2021 104.123Z" fill="#0029FF"/>
<path d="M83.3623 97.5835L83.6187 97.3271L83.1507 96.2466L82.8445 96.5528L83.3623 97.5835Z" fill="white"/>
<path d="M82.7886 98.1575L83.0446 97.9014L82.4644 96.9332L82.1578 97.2398L82.7886 98.1575Z" fill="white"/>
<path d="M82.2139 98.7322L82.4699 98.4761L81.7771 97.6205L81.4712 97.9264L82.2139 98.7322Z" fill="white"/>
<path d="M81.6395 99.3065L81.8952 99.0508L81.0901 98.3074L80.7839 98.6137L81.6395 99.3065Z" fill="white"/>
<path d="M81.0651 99.8807L81.3212 99.6246L80.4031 98.9942L80.0968 99.3005L81.0651 99.8807Z" fill="white"/>
<path d="M80.4917 100.455L80.7477 100.199L79.7174 99.6804L79.4108 99.987L80.4917 100.455Z" fill="white"/>
<path d="M87.4263 100.927L87.5973 100.756L87.011 99.794L86.8227 99.9823L87.4263 100.927Z" fill="white"/>
<path d="M87.0435 101.31L87.2145 101.139L86.5891 100.216L86.4005 100.405L87.0435 101.31Z" fill="white"/>
<path d="M86.6606 101.693L86.8313 101.522L86.1668 100.638L85.9786 100.826L86.6606 101.693Z" fill="white"/>
<path d="M86.0557 102.298L86.2267 102.127L85.5002 101.305L85.3119 101.493L86.0557 102.298Z" fill="white"/>
<path d="M85.6732 102.681L85.8442 102.51L85.0786 101.727L84.8903 101.915L85.6732 102.681Z" fill="white"/>
<path d="M85.2904 103.063L85.4611 102.893L84.6567 102.149L84.4684 102.337L85.2904 103.063Z" fill="white"/>
<path d="M84.6859 103.668L84.8566 103.497L83.9902 102.815L83.8019 103.003L84.6859 103.668Z" fill="white"/>
<path d="M84.3031 104.051L84.4738 103.88L83.5683 103.237L83.3801 103.425L84.3031 104.051Z" fill="white"/>
<path d="M83.9202 104.434L84.0905 104.263L83.146 103.659L82.9577 103.848L83.9202 104.434Z" fill="white"/>
<path d="M80.4912 100.455L80.7472 100.199L79.7169 99.6804L80.097 99.3003L81.0653 99.8805L81.3214 99.6244L80.4033 98.994L80.7842 98.6131L81.6398 99.306L81.8955 99.0503L81.0904 98.3069L81.4713 97.926L82.2139 98.7318L82.47 98.4758L81.7772 97.6201L82.1576 97.2397L82.7884 98.1573L83.0445 97.9013L82.4643 96.933L82.8448 96.5526L83.3626 97.5832L83.619 97.3268L83.5803 97.2386L86.0927 99.751L82.915 102.929L80.4026 100.416L80.4912 100.455Z" fill="#2245FF"/>
<path d="M74.9534 94.7581C75.0409 94.8456 75.1833 94.846 75.2715 94.7578L77.9217 92.1076C78.0092 92.0201 78.0092 91.8774 77.9217 91.7899C77.8338 91.702 77.6915 91.7024 77.604 91.7899L74.9538 94.44C74.8656 94.5283 74.8656 94.6703 74.9534 94.7581Z" fill="#2245FF"/>
<path d="M76.442 95.7787L78.9427 93.2781L78.7425 92.1577L75.3217 95.5786L76.442 95.7787Z" fill="#0029FF"/>
<path d="M94.7588 115.939L99.1034 111.595L98.8101 111.301L94.4654 115.646L94.7588 115.939Z" fill="#8296FF"/>
<path d="M95.606 116.969L100.132 112.443L98.9705 111.727L94.8905 115.807L95.606 116.969Z" fill="#3D5CFF"/>
<path d="M95.751 117.384L100.547 112.588L100.267 112.308L95.4713 117.104L95.751 117.384Z" fill="#E1882A"/>
<path d="M95.8496 117.844L101.008 112.686L100.729 112.406L95.5699 117.565L95.8496 117.844Z" fill="#CE7C26"/>
<path d="M95.896 118.357L101.521 112.732L101.241 112.452L95.6163 118.077L95.896 118.357Z" fill="#8296FF"/>
<path d="M75.346 94.6832L77.8466 92.1826L78.2824 92.6183L75.7817 95.1189L75.346 94.6832Z" fill="#5E77FF"/>
<path d="M81.049 95.3849L78.5483 97.8855L76.4418 95.779L78.9425 93.2784L81.049 95.3849Z" fill="#2245FF"/>
<path d="M95.0745 113.918L94.4067 114.586L85.1538 105.333L85.8215 104.665L95.0745 113.918Z" fill="#8296FF"/>
<path d="M96.4115 112.581L95.7441 113.248L86.4912 103.995L87.1586 103.328L96.4115 112.581Z" fill="#D47C28"/>
<path d="M97.0805 111.912L96.4131 112.579L87.1601 103.326L87.8275 102.659L97.0805 111.912Z" fill="#CB7026"/>
<path d="M97.7493 111.243L97.0815 111.911L87.8286 102.658L88.4963 101.99L97.7493 111.243Z" fill="#BA5E23"/>
<path d="M83.187 95.7299L93.741 85.1759L93.9813 85.4162L83.1572 96.2402C83.3064 96.0911 83.3197 95.8626 83.187 95.7299Z" fill="white"/>
<path d="M83.5806 97.2395L83.5139 97.0853L95.0627 85.5365L95.4145 86.6263L84.1909 97.8499L83.5806 97.2395Z" fill="#001CB5"/>
<path d="M87.0111 99.7939L87.2062 99.5989C87.3834 99.4217 87.4189 99.171 87.2862 99.0383L97.7764 88.5482C97.9001 88.4244 98.0991 88.4219 98.2207 88.5435C98.3423 88.6651 98.3397 88.8641 98.216 88.9878L87.1621 100.042L87.0111 99.7939Z" fill="#BEC9FF"/>
<path d="M87.1622 100.042L98.2204 88.9836L98.408 89.1711L87.3042 100.275L87.1622 100.042Z" fill="#0029FF"/>
<path d="M85.0429 105.445C84.6552 105.057 84.2597 104.708 83.9251 104.429L83.9204 104.433L83.3226 104.069L72.6254 114.767L72.9893 115.365L72.9846 115.369C73.2638 115.704 73.6127 116.1 74.0004 116.487L73.8889 116.599L83.1415 125.851L83.3223 125.67L83.602 125.95L83.7421 125.81L84.0218 126.09L84.202 125.91L84.4953 126.203L84.363 126.335L85.5246 127.051L85.6595 126.916L85.9393 127.196L86.1205 127.014L86.4002 127.294L86.6335 127.061L86.9132 127.34L87.4198 126.834L87.4194 126.834C86.86 126.275 86.5468 126.588 86.5468 126.588L81.1952 121.236C81.4959 120.936 81.285 120.695 81.0171 120.43L80.1757 121.271L79.6453 120.741L80.0187 120.367C75.359 115.283 78.9128 110.357 78.9128 110.357C78.9128 110.357 83.8383 106.803 88.9231 111.463L89.2968 111.089L89.8272 111.62L88.9859 112.461C89.2505 112.729 89.4915 112.94 89.7924 112.639L95.144 117.991C95.144 117.991 94.8309 118.304 95.3904 118.863L95.39 118.864L95.8964 118.357L95.6166 118.078L95.8497 117.844L95.57 117.565L95.7515 117.383L95.4718 117.104L95.6066 116.969L94.8912 115.807L94.7588 115.94L94.4655 115.646L94.6459 115.466L94.3662 115.186L94.506 115.046L94.2263 114.766L94.407 114.586L85.1544 105.333L85.0429 105.445Z" fill="#001CB5"/>
<path d="M72.79 113.054L72.3848 113.459L69.9358 111.01L70.3411 110.605L72.79 113.054Z" fill="#3D5CFF"/>
<path d="M74.1079 111.736L73.7026 112.141L71.2537 109.692L71.6589 109.287L74.1079 111.736Z" fill="#3D5CFF"/>
<path d="M75.4259 110.418L75.021 110.823L72.572 108.374L72.9769 107.969L75.4259 110.418Z" fill="#3D5CFF"/>
<path d="M76.7436 109.1L76.3384 109.506L73.8894 107.057L74.2946 106.651L76.7436 109.1Z" fill="#3D5CFF"/>
<path d="M78.0611 107.783L77.6562 108.188L75.2073 105.739L75.6121 105.334L78.0611 107.783Z" fill="#3D5CFF"/>
<path d="M79.3794 106.465L78.9741 106.87L76.5251 104.421L76.9304 104.016L79.3794 106.465Z" fill="#3D5CFF"/>
<path d="M80.6964 105.148L80.2915 105.552L77.8425 103.104L78.2474 102.699L80.6964 105.148Z" fill="#3D5CFF"/>
<path d="M82.0146 103.83L81.6094 104.235L79.1604 101.786L79.5656 101.381L82.0146 103.83Z" fill="#3D5CFF"/>
<path d="M79.6449 120.741L80.7948 119.591C80.7948 119.591 81.0856 119.849 80.9228 120.012C80.9228 120.012 81.2244 120.222 81.0419 120.405L80.1753 121.271L79.6449 120.741Z" fill="#3D5CFF"/>
<path d="M89.2964 111.089L88.1463 112.239C88.1463 112.239 88.4045 112.53 88.567 112.367C88.567 112.367 88.7775 112.669 88.9604 112.486L89.8268 111.62L89.2964 111.089Z" fill="#3D5CFF"/>
<path d="M88.923 111.463C83.8382 106.803 78.9126 110.357 78.9126 110.357C78.9126 110.357 75.3589 115.283 80.0186 120.367L80.4955 119.89C76.3765 115.335 79.5216 110.966 79.5216 110.966C79.5216 110.966 83.8909 107.821 88.446 111.94L88.923 111.463Z" fill="#0029FF"/>
<path d="M75.3463 94.683L75.2717 94.7576C75.1834 94.8458 75.0411 94.8454 74.9536 94.7579C74.8657 94.6701 74.8657 94.5281 74.9539 94.4398L75.0285 94.3653L74.3443 93.681L62.2369 105.788L62.9211 106.473L62.9958 106.398C63.0837 106.31 63.2259 106.31 63.3137 106.398C63.4012 106.485 63.4015 106.628 63.3135 106.716L63.2389 106.79L63.4565 107.008L75.5639 94.9007L75.3463 94.683Z" fill="#3D5CFF"/>
<path d="M75.8824 95.6789L75.3326 95.5681L75.782 95.1187L75.564 94.9007L63.4566 107.008L63.6746 107.226L64.1347 106.766L64.2348 107.327L75.8824 95.6789Z" fill="#001CB5"/>
<path d="M68.5492 110.848L79.4037 99.9937C79.2546 100.143 79.0258 100.157 78.8931 100.024C78.7604 99.8912 78.774 99.6624 78.9232 99.5132L79.3159 99.1205L78.3146 98.1192L78.5484 97.8854L76.4419 95.7789L75.8821 95.6789L64.2345 107.327L64.3346 107.886L66.4411 109.993L66.6748 109.759L67.6761 110.76L68.0687 110.368C68.218 110.218 68.4466 110.205 68.5793 110.338C68.712 110.47 68.6985 110.699 68.5492 110.848Z" fill="#5E77FF"/>
<path d="M80.4663 100.48L80.4028 100.417L80.4914 100.455L79.4106 99.9872L79.4041 99.9937L68.5496 110.848L68.5433 110.855L69.0107 111.936L68.9724 111.847L69.0359 111.91L80.4663 100.48Z" fill="#0029FF"/>
<path d="M82.9577 103.847L82.7626 104.043C82.5858 104.219 82.3347 104.255 82.2021 104.123C82.0694 103.99 82.1052 103.739 82.282 103.562L72.1177 113.726C72.2942 113.55 72.5453 113.514 72.678 113.647C72.8107 113.779 72.7747 114.03 72.5982 114.207L72.4029 114.402L72.4326 114.451L83.0061 103.877L82.9577 103.847Z" fill="#3D5CFF"/>
<path d="M83.0002 103.871L72.4268 114.445L72.625 114.767L83.3222 104.069L83.0002 103.871Z" fill="#0029FF"/>
<path d="M87.4195 126.834C86.86 126.275 86.5469 126.588 86.5469 126.588L81.1953 121.236C81.4959 120.936 81.285 120.695 81.0171 120.43L80.1757 121.271L86.0197 127.115L86.079 127.056L86.3587 127.336L86.592 127.102L86.8717 127.382L87.4195 126.834Z" fill="#3D5CFF"/>
<path d="M88.9854 112.461C89.25 112.729 89.491 112.94 89.7919 112.639L95.1435 117.991C95.1435 117.991 94.8304 118.304 95.3899 118.863L95.8959 118.357L95.6162 118.078L95.8493 117.844L95.5695 117.565L95.6707 117.464L89.8267 111.62L88.9854 112.461Z" fill="#3D5CFF"/>
<path d="M73.5084 114.604L79.645 120.741L80.0184 120.367C75.3588 115.283 78.9125 110.357 78.9125 110.357C78.9125 110.357 83.8381 106.803 88.9229 111.463L89.2965 111.089L83.1599 104.953L73.5084 114.604Z" fill="#3D5CFF"/>
<path d="M77.723 99.9525L68.5083 109.167L66.2207 106.88L75.4354 97.6649L77.723 99.9525Z" fill="white"/>
<path d="M76.1018 113.932C76.3654 114.196 76.3654 114.624 76.1018 114.888C75.8379 115.152 75.4099 115.151 75.1464 114.888C74.8824 114.624 74.8825 114.196 75.1465 113.932C75.41 113.669 75.8379 113.668 76.1018 113.932Z" fill="#0029FF"/>
<path d="M75.8552 114.179C75.9829 114.306 75.9825 114.513 75.8548 114.641C75.7268 114.769 75.5203 114.769 75.3926 114.641C75.2646 114.513 75.2646 114.307 75.3926 114.179C75.5203 114.051 75.7272 114.051 75.8552 114.179Z" fill="#5E77FF"/>
<path d="M83.4439 106.59C83.7074 106.854 83.7078 107.282 83.4439 107.546C83.1799 107.81 82.7517 107.81 82.4881 107.546C82.2242 107.282 82.2246 106.854 82.4885 106.59C82.7524 106.326 83.1799 106.326 83.4439 106.59Z" fill="#0029FF"/>
<path d="M83.1966 106.837C83.3243 106.965 83.3243 107.172 83.1966 107.299C83.0686 107.427 82.8621 107.427 82.7344 107.3C82.6064 107.172 82.6064 106.965 82.7344 106.837C82.8621 106.709 83.0686 106.709 83.1966 106.837Z" fill="#5E77FF"/>
<path d="M97.7537 111.239L94.4136 114.579L85.1606 105.326L88.5007 101.986L97.7537 111.239Z" fill="#3D5CFF"/>
<path d="M83.1649 125.828L79.8003 129.192L70.5473 119.939L73.912 116.575L83.1649 125.828Z" fill="#3D5CFF"/>
<path d="M74.1843 80.5581C74.1843 80.5581 75.1032 79.7466 75.9428 79.9818C75.9428 79.9818 75.4567 78.82 75.9224 78.2469C75.9224 78.2469 75.0783 78.9969 75.6695 79.6417C75.6695 79.6417 74.1701 79.7754 74.1843 80.5581Z" fill="#001CB5"/>
<path d="M81.6221 79.3548C81.6221 79.3548 82.9734 78.1617 84.2076 78.5075C84.2076 78.5075 83.4931 76.7993 84.1777 75.9565C84.1777 75.9565 82.9367 77.0593 83.8058 78.0073C83.8058 78.0073 81.6012 78.2039 81.6221 79.3548Z" fill="#001CB5"/>
<path d="M74.3192 76.6803C74.3192 76.6803 75.1616 76.3865 75.6623 76.776C75.6623 76.776 75.6547 75.8596 76.1262 75.6017C76.1262 75.6017 75.3512 75.8747 75.5718 76.4716C75.5718 76.4716 74.5251 76.1491 74.3192 76.6803Z" fill="#001CB5"/>
</g>
</g>
<path d="M108.789 134.923L115.582 141.716L114.296 143.002L110.755 139.462L108.841 137.403L108.82 137.424L112.464 144.834L111.301 145.998L103.9 142.344L103.88 142.364L105.938 144.279L109.479 147.819L108.192 149.106L101.399 142.313L103.458 140.254L108.388 142.735L110.354 143.836L110.374 143.816L109.294 141.85L106.792 136.919L108.789 134.923ZM116.227 127.485L120.344 131.602C121.271 132.528 121.72 133.472 121.693 134.432C121.658 135.386 121.168 136.336 120.221 137.283C119.274 138.23 118.323 138.721 117.37 138.755C116.409 138.783 115.466 138.333 114.539 137.407L110.422 133.29L111.843 131.869L115.898 135.925C116.467 136.494 117.009 136.796 117.524 136.83C118.046 136.858 118.557 136.621 119.058 136.12C119.559 135.619 119.792 135.112 119.758 134.597C119.723 134.082 119.421 133.54 118.852 132.971L114.797 128.915L116.227 127.485ZM125.253 118.459L132.047 125.252L130.76 126.538L127.219 122.998L125.305 120.939L125.284 120.96L128.928 128.37L127.765 129.533L120.364 125.88L120.344 125.9L122.402 127.815L125.943 131.355L124.656 132.642L117.863 125.849L119.922 123.79L124.852 126.271L126.818 127.372L126.838 127.351L125.758 125.385L123.257 120.455L125.253 118.459ZM133.813 123.485L127.02 116.692L129.995 113.717C130.818 112.894 131.587 112.448 132.3 112.379C133.014 112.311 133.666 112.571 134.256 113.161C134.619 113.525 134.832 113.957 134.894 114.458C134.956 114.959 134.812 115.46 134.462 115.961L134.472 115.971C135.014 115.567 135.556 115.381 136.098 115.416C136.64 115.45 137.11 115.666 137.508 116.064C138.092 116.647 138.335 117.316 138.239 118.071C138.15 118.819 137.7 119.598 136.891 120.407L133.813 123.485ZM134.122 121.035L135.697 119.461C136.081 119.076 136.287 118.713 136.314 118.37C136.342 118.026 136.215 117.714 135.934 117.433C135.645 117.145 135.333 117.018 134.997 117.052C134.661 117.086 134.3 117.296 133.916 117.68L132.341 119.255L134.122 121.035ZM131.25 118.164L132.66 116.754C133.408 116.006 133.491 115.34 132.907 114.757C132.324 114.174 131.659 114.256 130.911 115.004L129.501 116.414L131.25 118.164ZM146.566 110.732L145.094 112.204L142.871 111.113L140.267 113.717L141.358 115.94L139.907 117.392L135.594 108.118L137.292 106.42L146.566 110.732ZM139.536 112.348L141.502 110.382L137.55 108.406L139.536 112.348ZM142.201 101.511L148.994 108.304L147.574 109.725L140.78 102.932L142.201 101.511Z" fill="black"/>
</g>
<defs>
<clipPath id="clip0_35_70">
<rect width="137.5" height="137.5" fill="white" transform="translate(0.879395 98.1067) rotate(-45)"/>
</clipPath>
<clipPath id="clip1_35_70">
<rect width="84.2075" height="83.889" fill="white" transform="translate(21.9473 99.6362) rotate(-45)"/>
</clipPath>
</defs>
</svg>
